<svg xmlns="http://www.w3.org/2000/svg" width="129" height="129" viewBox="0 0 129 129">
  <g id="Grupo_1189285" data-name="Grupo 1189285" transform="translate(-1089.676 -8398.59)">
    <path id="Trazado_1034776" data-name="Trazado 1034776" d="M0,0H129V129H0Z" transform="translate(1089.676 8398.59)" fill="#fdf7ea"/>
    <g id="Grupo_1189187" data-name="Grupo 1189187" transform="translate(1092.991 8402.2)">
      <path id="Trazado_1034768" data-name="Trazado 1034768" d="M46.793,0V3.807h4.726v1.57H45.327L45.31,0H37.815V3.807h4.726v1.57H36.349L36.33,0H34.9V0H28.836V3.807h4.726v1.57H27.371L27.351,0H25.923V.959h.447l.017,5.376h8.156V2.848H29.818V.959H35.35l.017,5.376h8.156V2.848H38.8V.959h5.531l.017,5.376H52.5V2.848H47.775V.959h5.089l0-.959Z" transform="translate(-0.558 0)" fill="#ada899"/>
      <path id="Trazado_1034769" data-name="Trazado 1034769" d="M110.24,0V3.807h4.726v1.57h-6.194L108.755,0H101.26V3.807h4.726v1.57H99.795L99.774,0H92.28V3.807h4.727v1.57H90.815L90.8,0H83.3V3.807h4.726v1.57H81.836L81.818,0H80.391V0H74.324V3.807H79.05v1.57H72.858L72.838,0H65.344V3.807h4.725v1.57H63.877L63.86,0H56.366V3.807h4.726v1.57H54.9L54.882,0H53.458V.959h.447l.016,5.376h8.157V2.848H57.352V.959H62.88L62.9,6.335h8.156V2.848H66.328V.959h5.53l.017,5.376h8.156V2.848H75.305V.959h5.533l.017,5.376h8.156V2.848H84.284V.959h5.531l.017,5.376h8.157V2.848H93.264V.959h5.531l.017,5.376h8.161V2.848h-4.726V.959h5.523l.017,5.376h8.157V2.848h-4.726V.959h5.088v0h5.934V6.991h-1.61V2.384h-3.906V8.3h.984V3.344h1.939V7.951h3.576V0Z" transform="translate(-1.152 0)" fill="#ada899"/>
      <path id="Trazado_1034770" data-name="Trazado 1034770" d="M115.573,8.7V10.1l5.516.017v6.029h-1.61v-4.6h-3.906v5.912h0v1.39l5.516.017v6.031h-1.61v-4.6h-3.906v7.3l5.516.017v6.029h-1.61v-4.6h-3.906v7.3l5.516.017V42.4h-1.61V37.8h-3.906v5.912h0V45.1l5.516.017v6.031h-1.61v-4.6h-3.906v7.3l5.516.017V59.9h-1.61V55.3h-3.906v7.3l5.516.017v6.031h-1.61v-4.6h-3.906v7.3l5.516.017v6.031h-1.61v-4.6h-3.906v5.911h0v1.39l5.516.018v6.029h-1.61v-4.6h-3.906v7.3l5.516.017v6.031h-1.61v-4.6h-3.906v7.3l5.516.017v6.029h-1.61v-4.6h-3.906v5.911h0v1.39l5.516.017v6.03h-1.61v-4.6h-3.906v7.3l5.516.017v6.031h-1.61v-4.6h-3.906v4.953h-1.5l-.017-5.377H105.9v3.488h4.725v1.889H105.1l-.017-5.377H96.925v3.488h4.726v1.889H96.119L96.1,116.14H87.946v3.488h4.726v1.889H87.14l-.017-5.377H78.967v3.488h4.724v1.889h-5.53l-.016-5.377H69.988v3.488h4.727v1.889H69.183l-.017-5.377H61.01v3.488h4.725v1.889H60.2l-.017-5.377H52.031v3.488h4.724v1.889h-5.53l-.016-5.377H43.052v3.488h4.726v1.889H42.246l-.017-5.377H34.073v3.488H38.8v1.889h-5.53l-.018-5.377H25.095v3.488H29.82v1.889H24.289l-.017-5.377H16.116v3.488h4.726v1.889H15.31l-.017-5.377H7.137v3.488h4.725v1.889H6.5v-4.953H2.595v4.6H.984v-6.031l5.516-.017v-7.3H2.595v4.6H.984v-6.03l5.516-.017v-1.39h0V99.061H2.595v4.6H.984V97.63L6.5,97.613v-7.3H2.595v4.6H.984V88.877L6.5,88.86v-7.3H2.595v4.6H.984V80.126L6.5,80.108V72.8H2.595v4.6H.984V71.374L6.5,71.356v-1.39h0V64.052H2.595v4.6H.984V62.622L6.5,62.6V55.3H2.595v4.6H.984V53.871L6.5,53.854v-7.3H2.595v4.6H.984V45.118L6.5,45.1V43.71h0V37.8H2.595v4.6H.984v-6.03L6.5,36.349v-7.3H2.595v4.6H.984V27.615L6.5,27.6v-7.3H2.595v4.6H.984V18.862L6.5,18.845v-1.39h0V11.542H2.595v4.6H.984V10.112L6.5,10.1V8.7H5.515v.436L0,9.155V17.1H3.578V12.5H5.515v5.39L0,17.907v7.949H3.578V21.25H5.515v5.391L0,26.658v7.951H3.578V30H5.515v5.391L0,35.41v7.95H3.578v-4.6H5.515v5.39L0,44.162v7.95H3.578V47.506H5.515V52.9L0,52.913v7.95H3.578v-4.6H5.515v5.39L0,61.666v7.949H3.578V65.01H5.515V70.4L0,70.417v7.95H3.578V73.761H5.515v5.391L0,79.168v7.95H3.578v-4.6H5.515v5.391L0,87.922v7.949H3.578V91.265H5.515v5.392L0,96.673v7.951H3.578v-4.606H5.515v5.39L0,105.424v7.95H3.578v-4.6H5.515v5.391L0,114.177v7.949H3.578V117.52H5.515v4.959l.984,0h6.342v-3.808H8.125V117.1h6.188l.017,5.377h7.494v-3.808H17.1V117.1h6.187l.017,5.377H30.8v-3.808H26.082V117.1H32.27l.018,5.377h7.493v-3.808H35.061V117.1h6.187l.017,5.377H48.76v-3.808H44.041V117.1h6.187l.018,5.377h7.493v-3.808H53.019V117.1h6.187l.018,5.377h7.494v-3.808H62V117.1h6.187l.017,5.377H75.7v-3.808H70.976V117.1h6.188l.018,5.377h7.493v-3.808H79.956V117.1h6.187l.018,5.377h7.494v-3.808H88.935V117.1h6.187l.018,5.377h7.493v-3.808H97.913V117.1H104.1l.018,5.377h7.494v-3.808h-4.724V117.1h6.192l.017,5.377h2.477l.983,0V117.52H118.5v4.605h3.577v-7.949l-5.517-.016v-5.391H118.5v4.6h3.577v-7.95l-5.517-.016v-5.39H118.5v4.606h3.577V96.673l-5.517-.015V91.265H118.5v4.605h3.577V87.922l-5.517-.016V82.514H118.5v4.6h3.577v-7.95l-5.517-.016v-5.39H118.5v4.606h3.577v-7.95l-5.517-.016V65.01H118.5v4.605h3.577V61.666l-5.517-.017v-5.39H118.5v4.6h3.577v-7.95l-5.517-.016V47.506H118.5v4.606h3.577v-7.95l-5.517-.016v-5.39H118.5v4.6h3.577V35.41l-5.517-.016V30H118.5v4.606h3.577V26.658l-5.517-.016V21.25H118.5v4.605h3.577V17.907l-5.517-.016V12.5H118.5v4.6h3.577V9.155l-5.517-.016V8.7Z" transform="translate(0 -0.403)" fill="#ada899"/>
      <path id="Trazado_1034771" data-name="Trazado 1034771" d="M19.3,0V3.807h4.726v1.57H17.831L17.814,0H16.387V0H10.319V3.807h4.725v1.57H8.853L8.834,0H0V7.951H3.578V3.344H5.516V8.3H6.5V2.384h-3.9V6.991H.985V.954H7.406v0h.448l.017,5.376h8.155V2.848H11.3V.959h5.533l.016,5.376h8.157V2.848h-4.73V.959h5.087V0Z" transform="translate(0 0)" fill="#ada899"/>
    </g>
    <g id="Grupo_1189188" data-name="Grupo 1189188" transform="translate(1113.875 8422.046)">
      <g id="Grupo_1188569" data-name="Grupo 1188569" transform="translate(0 0)">
        <g id="Grupo_1099776" data-name="Grupo 1099776" transform="translate(0)">
          <g id="Grupo_1099618" data-name="Grupo 1099618">
            <rect id="Rectángulo_401104" data-name="Rectángulo 401104" width="80.872" height="81.846" fill="none"/>
          </g>
          <g id="_x31_8" transform="translate(-0.968 1.574)">
            <path id="Trazado_1035486" data-name="Trazado 1035486" d="M76.658,28.861l-2.676-5.353a2.679,2.679,0,0,0-1.2-1.2L62.079,16.958a2.678,2.678,0,0,0-1.2-.282h-7.4L48.7,14.281A2.677,2.677,0,1,0,46.3,19.07l5.353,2.676a2.678,2.678,0,0,0,1.2.282h7.4L69.593,26.7l1.079,2.162L67.714,30.34a2.679,2.679,0,0,0-1.2,1.2L63.84,36.89a2.676,2.676,0,0,0,.5,3.089L67.8,43.44l-2.389,2.389-9.237-2.308a2.655,2.655,0,0,0-2.253.455l-9.686,7.263-5.561-1.388,5.61-7.483a2.676,2.676,0,0,0-1.294-4.143l-7.431-2.478-2.229-2.229a2.675,2.675,0,0,0-3.785,0L25.366,37.7l-6.46-2.151a2.668,2.668,0,0,0-.847-.139h-7.4l-2.393-1.2.983-1.968,5.409-1.8,1.507,1.505a2.677,2.677,0,0,0,1.892.784h5.353a2.676,2.676,0,0,0,2.676-2.676V24.7a2.678,2.678,0,0,0-.282-1.2l-.074-.149,5.06,1.265a2.675,2.675,0,1,0,1.3-5.191L21.385,16.757a2.675,2.675,0,0,0-3.044,3.792l2.394,4.788v2.044H19.167l-1.892-1.892a2.661,2.661,0,0,0-2.739-.646L6.507,27.52a2.667,2.667,0,0,0-1.547,1.341L2.283,34.213A2.676,2.676,0,0,0,3.48,37.8l5.353,2.676a2.678,2.678,0,0,0,1.2.282h7.6L25.241,43.3a2.67,2.67,0,0,0,2.739-.646L31.441,39.2l.784.784a2.684,2.684,0,0,0,1.045.646l4.507,1.5-5.8,7.737a2.674,2.674,0,0,0,1.491,4.2l10.707,2.676a2.606,2.606,0,0,0,.648.081,2.68,2.68,0,0,0,1.6-.536l9.686-7.263,9.472,2.365a2.674,2.674,0,0,0,2.541-.7l5.353-5.353a2.675,2.675,0,0,0,0-3.785l-3.988-3.988,1.414-2.831,4.556-2.277a2.676,2.676,0,0,0,1.2-3.591Z" transform="translate(0 20.118)" fill="#5b543e" stroke="#fdf7ea" stroke-width="1"/>
            <path id="Trazado_1035487" data-name="Trazado 1035487" d="M16.676,11.961V50.175a2.676,2.676,0,0,0,5.353,0V31.441H46.117a2.676,2.676,0,0,0,2.227-4.161l-4.362-6.545,4.362-6.545a2.676,2.676,0,0,0-2.227-4.161H23.961a5.289,5.289,0,0,0,.745-2.676,5.353,5.353,0,1,0-8.029,4.608ZM38.537,22.219l2.58,3.868H22.029V15.382H41.117l-2.58,3.868a2.679,2.679,0,0,0,0,2.969Z" transform="translate(20.118 0)" fill="#5b543e" stroke="#fdf7ea" stroke-width="1"/>
          </g>
        </g>
      </g>
    </g>
  </g>
</svg>
