<svg xmlns="http://www.w3.org/2000/svg" width="90" height="90" viewBox="0 0 90 90">
  <g id="Grupo_1189438" data-name="Grupo 1189438" transform="translate(-1166.711 -607)">
    <g id="Grupo_1189435" data-name="Grupo 1189435" transform="translate(831)">
      <circle id="Elipse_13973" data-name="Elipse 13973" cx="45" cy="45" r="45" transform="translate(335.711 607)" fill="#fff"/>
    </g>
    <g id="exhibicion" transform="translate(1163.024 580.696)">
      <path id="Trazado_1035464" data-name="Trazado 1035464" d="M184.267,190.452l4.354,11.111c.2.51.326,1.044.556,1.541h7.982c.23-.5.356-1.03.556-1.541l4.354-11.111c.606-1.546.21-3.2-1.754-3.2H186.022C184.057,187.249,183.661,188.906,184.267,190.452Z" transform="translate(-143.766 -122.194)" fill="#14b5a2" fill-rule="evenodd"/>
      <path id="Trazado_1035465" data-name="Trazado 1035465" d="M184.267,190.452l4.354,11.111c.2.51.326,1.044.556,1.541h4.767c.23-.5.356-1.03.556-1.541l4.354-11.111c.606-1.546.21-3.2-1.754-3.2h-11.08C184.057,187.249,183.661,188.906,184.267,190.452Z" transform="translate(-143.766 -122.194)" fill="#19cfba" fill-rule="evenodd"/>
      <ellipse id="Elipse_13980" data-name="Elipse 13980" cx="5.375" cy="5.822" rx="5.375" ry="5.822" transform="translate(44.028 51.783)" fill="#f0b16e"/>
      <path id="Trazado_1035466" data-name="Trazado 1035466" d="M215.544,103.957a5.938,5.938,0,0,1,0-11.391,5.938,5.938,0,0,1,0,11.391Z" transform="translate(-167.258 -40.656)" fill="#fcd4a9" fill-rule="evenodd"/>
      <path id="Trazado_1035467" data-name="Trazado 1035467" d="M192.59,279.236h12.073a2.253,2.253,0,0,1,2.246,2.246v18.039H190.344V281.482A2.253,2.253,0,0,1,192.59,279.236Z" transform="translate(-149.224 -201.41)" fill="#cf8c48" fill-rule="evenodd"/>
      <path id="Trazado_1035468" data-name="Trazado 1035468" d="M192.589,279.236h8.818a2.255,2.255,0,0,1,1.66,2.168v18.039H190.343v-17.96A2.253,2.253,0,0,1,192.589,279.236Z" transform="translate(-149.223 -201.41)" fill="#f0b16e" fill-rule="evenodd"/>
      <path id="Trazado_1035469" data-name="Trazado 1035469" d="M152.453,407.141H174.7a2.816,2.816,0,0,1,2.808,2.808v2.808H149.646v-2.808A2.816,2.816,0,0,1,152.453,407.141Z" transform="translate(-114.176 -311.557)" fill="#cf8c48" fill-rule="evenodd"/>
      <path id="Trazado_1035470" data-name="Trazado 1035470" d="M152.453,407.141H167.53a2.816,2.816,0,0,1,2.808,2.808v2.808H149.646v-2.808A2.816,2.816,0,0,1,152.453,407.141Z" transform="translate(-114.176 -311.557)" fill="#f0b16e" fill-rule="evenodd"/>
      <path id="Trazado_1035471" data-name="Trazado 1035471" d="M41.921,52.414H56.033V87.025H41.921Z" transform="translate(-21.407 -6.079)" fill="#ffbf31" fill-rule="evenodd"/>
      <path id="Trazado_1035472" data-name="Trazado 1035472" d="M41.921,52.414h12.6V85.1h-12.6Z" transform="translate(-21.407 -6.079)" fill="#ffe177" fill-rule="evenodd"/>
      <path id="Trazado_1035473" data-name="Trazado 1035473" d="M65.454,74.046l4.573,4.326L65.454,82.7l4.573,4.326H60.881L65.454,82.7l-4.573-4.326,4.573-4.326L60.881,69.72l4.573-4.327-4.573-4.326,4.573-4.326-4.573-4.326h9.145L65.454,56.74l4.573,4.326-4.573,4.326,4.573,4.327Z" transform="translate(-37.735 -6.079)" fill="#e33f65" fill-rule="evenodd"/>
      <path id="Trazado_1035474" data-name="Trazado 1035474" d="M67.753,87.025H60.881l3.436-3.251Zm-3.436-5.4-3.436-3.251,3.436-3.251,3.436,3.251Zm0-8.653L60.881,69.72l3.436-3.251,3.436,3.251Zm0-8.653-3.436-3.251,3.436-3.251,3.436,3.251Zm0-8.653-3.436-3.251h6.872Z" transform="translate(-37.735 -6.079)" fill="#fa6e85" fill-rule="evenodd"/>
      <path id="Trazado_1035475" data-name="Trazado 1035475" d="M18.043,47.315a.98.98,0,1,1,0-1.96H37.1a.98.98,0,1,1,0,1.96Z" transform="translate(0 0)" fill="#f0b16e" fill-rule="evenodd"/>
      <path id="Trazado_1035476" data-name="Trazado 1035476" d="M18.043,296.611a.98.98,0,1,1,0-1.96H37.1a.98.98,0,1,1,0,1.96Z" transform="translate(0 -214.685)" fill="#f0b16e" fill-rule="evenodd"/>
      <path id="Trazado_1035477" data-name="Trazado 1035477" d="M356.415,52.731h14.114V87.254H356.415Z" transform="translate(-292.238 -6.352)" fill="#60b7fe" fill-rule="evenodd"/>
      <path id="Trazado_1035478" data-name="Trazado 1035478" d="M356.415,52.731h12.311v32.21H356.415ZM368.726,86.9v.353H356.415V86.9Z" transform="translate(-292.238 -6.352)" fill="#88c8fe" fill-rule="evenodd"/>
      <path id="Trazado_1035479" data-name="Trazado 1035479" d="M332.534,47.633a.98.98,0,1,1,0-1.96h19.057a.98.98,0,1,1,0,1.96Z" transform="translate(-270.829 -0.274)" fill="#f0b16e" fill-rule="evenodd"/>
      <path id="Trazado_1035480" data-name="Trazado 1035480" d="M332.534,296.294a.98.98,0,1,1,0-1.96h19.057a.98.98,0,0,1,0,1.96Z" transform="translate(-270.829 -214.412)" fill="#f0b16e" fill-rule="evenodd"/>
      <path id="Trazado_1035481" data-name="Trazado 1035481" d="M356.415,152.774l7.057-11.534,7.057,11.286v.35a7.275,7.275,0,0,0-1.872.806,6.206,6.206,0,0,1-6.7,0,5.989,5.989,0,0,0-5.547-.511Z" transform="translate(-292.238 -82.573)" fill="#14b5a2" fill-rule="evenodd"/>
      <path id="Trazado_1035482" data-name="Trazado 1035482" d="M362.119,165.126l6.278-10.26,5.93,10.149a8.136,8.136,0,0,0-.757.4c-2.357,1.342-3.79,1.888-5.9.618a5.989,5.989,0,0,0-5.547-.511Z" transform="translate(-297.15 -94.307)" fill="#19cfba" fill-rule="evenodd"/>
      <path id="Trazado_1035483" data-name="Trazado 1035483" d="M370.529,213.651v3.937a6.89,6.89,0,0,0-2.5.936,6.207,6.207,0,0,1-6.7,0,5.874,5.874,0,0,0-4.918-.713v-3.865a5.989,5.989,0,0,1,5.547.511,6.207,6.207,0,0,0,6.7,0A7.275,7.275,0,0,1,370.529,213.651Z" transform="translate(-292.238 -144.798)" fill="#ffe177" fill-rule="evenodd"/>
      <path id="Trazado_1035484" data-name="Trazado 1035484" d="M370.529,232.85v1.272a6.89,6.89,0,0,0-2.5.936,6.207,6.207,0,0,1-6.7,0,5.874,5.874,0,0,0-4.918-.713v-1.2a5.989,5.989,0,0,1,5.547.511,6.207,6.207,0,0,0,6.7,0A7.275,7.275,0,0,1,370.529,232.85Z" transform="translate(-292.238 -161.333)" fill="#ffbf31" fill-rule="evenodd"/>
      <circle id="Elipse_13981" data-name="Elipse 13981" cx="3.542" cy="3.542" r="3.542" transform="translate(66.984 55.973) rotate(-76.7)" fill="#ffbf31"/>
      <path id="Trazado_1035485" data-name="Trazado 1035485" d="M384.337,84.985a3.542,3.542,0,1,1,2.6-3.415A3.543,3.543,0,0,1,384.337,84.985Z" transform="translate(-314.044 -28.246)" fill="#ffe177" fill-rule="evenodd"/>
    </g>
  </g>
</svg>
