<svg xmlns="http://www.w3.org/2000/svg" width="160" height="160" viewBox="0 0 160 160">
  <g id="Grupo_1190332" data-name="Grupo 1190332" transform="translate(-1089.676 -8398.59)">
    <rect id="Rectángulo_460221" data-name="Rectángulo 460221" width="160" height="160" transform="translate(1089.676 8398.59)" fill="#fff"/>
    <g id="Grupo_1189187" data-name="Grupo 1189187" transform="translate(1093.788 8403.068)">
      <path id="Trazado_1034768" data-name="Trazado 1034768" d="M51.808,0V4.722H57.67V6.669H49.99L49.969,0h-9.3V4.722h5.862V6.669h-7.68L38.832,0H37.061V0H29.536V4.722H35.4V6.669H27.719L27.695,0H25.923V1.19h.555L26.5,7.858H36.614V3.533h-5.86V1.19h6.862l.021,6.668H47.753V3.533H41.891V1.19h6.86l.021,6.668H58.89V3.533H53.027V1.19h6.312L59.333,0Z" transform="translate(5.537 0)" fill="#ada899"/>
      <path id="Trazado_1034769" data-name="Trazado 1034769" d="M123.885,0V4.722h5.862V6.669h-7.682L122.044,0h-9.3V4.722h5.862V6.669h-7.68L110.9,0h-9.295V4.722h5.863V6.669h-7.68L99.77,0H90.475V4.722h5.862V6.669H88.656L88.633,0H86.863V0H79.338V4.722H85.2V6.669H77.52L77.5,0H68.2V4.722h5.86V6.669H66.38L66.36,0H57.065V4.722h5.862V6.669h-7.68L55.224,0H53.458V1.19h.555l.019,6.668H64.15V3.533H58.288V1.19h6.856l.021,6.668H75.281V3.533H69.42V1.19H76.28L76.3,7.858H86.417V3.533H80.555V1.19h6.863l.021,6.668H97.555V3.533H91.692V1.19h6.86l.021,6.668h10.118V3.533h-5.862V1.19h6.86l.021,6.668h10.122V3.533h-5.862V1.19h6.851l.021,6.668H130.96V3.533H125.1V1.19h6.311V1.184h7.36V8.671h-2V2.957h-4.845v7.334h1.221V4.148h2.405V9.861h4.436V0Z" transform="translate(11.418 0)" fill="#ada899"/>
      <path id="Trazado_1034770" data-name="Trazado 1034770" d="M143.347,8.7V10.43l6.841.021v7.478h-2V12.224h-4.845v7.333h0v1.725l6.841.021v7.481h-2V23.079h-4.845v9.06l6.841.021v7.478h-2V33.934h-4.845v9.06l6.841.021v7.479h-2V44.789h-4.845v7.333h0v1.725l6.841.021v7.481h-2V55.644h-4.845V64.7l6.841.021V72.2h-2V66.5h-4.845v9.06l6.841.021V83.06h-2V77.353h-4.845v9.06l6.841.021v7.481h-2V88.21h-4.845v7.331h0v1.725l6.841.022v7.478h-2V99.063h-4.845v9.06l6.841.021v7.481h-2v-5.705h-4.845v9.06l6.841.021v7.478h-2v-5.7h-4.845v7.331h0v1.725l6.841.021v7.479h-2v-5.705h-4.845v9.06l6.841.021v7.481h-2v-5.705h-4.845v6.144h-1.856l-.021-6.669H131.354v4.326h5.86v2.343h-6.86l-.021-6.669H120.217v4.326h5.862v2.343h-6.862l-.019-6.669H109.08v4.326h5.862v2.343h-6.86l-.021-6.669H97.944v4.326H103.8v2.343H96.944l-.019-6.669H86.807v4.326H92.67v2.343H85.808l-.021-6.669H75.671v4.326h5.86v2.343h-6.86l-.021-6.669H64.534v4.326h5.859v2.343H63.534l-.019-6.669H53.4v4.326h5.862v2.343H52.4l-.021-6.669H42.261v4.326h5.86v2.343H41.263l-.022-6.669H31.126v4.326h5.86v2.343h-6.86l-.021-6.669H19.989v4.326H25.85v2.343H18.989l-.021-6.669H8.852v4.326h5.86v2.343H8.062v-6.144H3.218v5.705h-2v-7.481l6.841-.021v-9.06H3.218v5.705h-2v-7.479l6.841-.021v-1.725h0v-7.331H3.218v5.7h-2V119l6.841-.021v-9.06H3.218v5.705h-2v-7.481l6.841-.021v-9.06H3.218v5.705h-2V97.29l6.841-.022V88.209H3.218v5.7h-2V86.434l6.841-.022V84.689h0V77.353H3.218V83.06h-2V75.579l6.841-.021V66.5H3.218V72.2h-2V64.725L8.062,64.7v-9.06H3.218v5.705h-2V53.869l6.841-.021V52.123h0V44.789H3.218v5.705h-2V43.014l6.841-.021v-9.06H3.218v5.705h-2V32.16l6.841-.021v-9.06H3.218v5.705h-2V21.3l6.841-.021V19.558h0V12.224H3.218v5.705h-2V10.451l6.841-.021V8.7H6.841v.541L0,9.263v9.86H4.438V13.413h2.4V20.1L0,20.119v9.859H4.438V24.266h2.4v6.687L0,30.973v9.862H4.438V35.121h2.4v6.687L0,41.828v9.86H4.438V45.978h2.4v6.686L0,52.683v9.86H4.438V56.831h2.4v6.687L0,63.537V73.4H4.438V67.687h2.4v6.686L0,74.394v9.859H4.438V78.541h2.4v6.687L0,85.248v9.86H4.438V89.4h2.4v6.687L0,96.1v9.86H4.438v-5.711h2.4v6.687L0,106.959v9.859H4.438v-5.712h2.4v6.688L0,117.813v9.862H4.438v-5.713h2.4v6.686L0,128.667v9.861H4.438v-5.711h2.4V139.5L0,139.523v9.859H4.438V143.67h2.4v6.151l1.221,0h7.866v-4.723H10.077v-1.946h7.675l.021,6.669h9.295v-4.723H21.214v-1.946h7.673l.021,6.669H38.2v-4.723H32.35v-1.946h7.675l.022,6.669H49.34v-4.723H43.487v-1.946h7.673l.021,6.669h9.3v-4.723H54.624v-1.946H62.3l.022,6.669h9.294v-4.723H65.76v-1.946h7.673l.022,6.669H82.75v-4.723H76.9v-1.946h7.673l.021,6.669h9.295v-4.723H88.033v-1.946h7.675l.022,6.669h9.294v-4.723H99.17v-1.946h7.673l.022,6.669h9.295v-4.723h-5.853v-1.946h7.674l.022,6.669H127.3v-4.723h-5.853v-1.946h7.673l.022,6.669h9.295v-4.723h-5.859v-1.946h7.68l.021,6.669h3.073l1.22,0V143.67h2.405v5.712h4.437v-9.859l-6.842-.02v-6.687h2.405v5.711h4.437v-9.861l-6.842-.02v-6.686h2.405v5.713h4.437v-9.862l-6.842-.019v-6.688h2.405v5.712h4.437v-9.859l-6.842-.02v-6.687h2.405v5.711h4.437V96.1l-6.842-.02V89.4h2.405V95.11h4.437v-9.86l-6.842-.02V78.541h2.405v5.712h4.437V74.394l-6.842-.021V67.687h2.405V73.4h4.437v-9.86l-6.842-.02V56.831h2.405v5.713h4.437v-9.86l-6.842-.02V45.978h2.405v5.711h4.437v-9.86l-6.842-.02V35.121h2.405v5.713h4.437V30.973l-6.842-.02V24.266h2.405v5.712h4.437V20.119l-6.842-.02V13.413h2.405v5.711h4.437V9.263l-6.842-.02V8.7Z" transform="translate(0 1.592)" fill="#ada899"/>
      <path id="Trazado_1034771" data-name="Trazado 1034771" d="M23.935,0V4.722H29.8V6.669H22.116L22.1,0H20.324V0H12.8V4.722h5.86V6.669H10.98L10.957,0H0V9.861H4.437V4.148h2.4v6.143h1.22V2.957H3.218V8.671h-2V1.184H9.186V1.19h.556l.021,6.668H19.878V3.533H14.016V1.19h6.863L20.9,7.858H31.016V3.533H25.15V1.19h6.309V0Z" transform="translate(0 0)" fill="#ada899"/>
    </g>
    <g id="Grupo_1189188" data-name="Grupo 1189188" transform="translate(1119.69 8427.683)">
      <g id="Grupo_1188569" data-name="Grupo 1188569" transform="translate(0 0)">
        <g id="Grupo_1099776" data-name="Grupo 1099776" transform="translate(0)">
          <g id="Grupo_1099618" data-name="Grupo 1099618">
            <rect id="Rectángulo_401104" data-name="Rectángulo 401104" width="100.306" height="101.514" fill="none"/>
          </g>
          <g id="reunion_7_" data-name="reunion (7)" transform="translate(-2.788 0.243)">
            <g id="Grupo_1190486" data-name="Grupo 1190486" transform="translate(4 14.682)">
              <g id="Grupo_1190485" data-name="Grupo 1190485" transform="translate(0)">
                <path id="Trazado_1038597" data-name="Trazado 1038597" d="M95.031,91.708a11.415,11.415,0,1,0-14.043,1.281,8.154,8.154,0,0,0-3.578,6.744v11.419H70.885V103A11.43,11.43,0,0,0,60.82,91.664a11.419,11.419,0,1,0-15.759,0A11.43,11.43,0,0,0,35,103v8.157H28.47V99.733a8.154,8.154,0,0,0-3.578-6.744A11.425,11.425,0,1,0,10.85,91.708,8.149,8.149,0,0,0,4,99.733V124.2a8.172,8.172,0,0,0,6.525,7.992V156.83h3.263V132.36H28.47V155.2A1.632,1.632,0,0,0,30.1,156.83H39.89a1.632,1.632,0,0,0,1.631-1.631V129.1h9.788v24.47H44.784v3.263H61.1v-3.263H54.572V129.1H64.36v26.1a1.632,1.632,0,0,0,1.631,1.631h9.788a1.632,1.632,0,0,0,1.631-1.631V132.36H92.093v24.47h3.263V132.2a8.171,8.171,0,0,0,6.525-7.992V99.733A8.149,8.149,0,0,0,95.031,91.708ZM79.042,83.419A8.157,8.157,0,1,1,87.2,91.576,8.166,8.166,0,0,1,79.042,83.419Zm-34.258,0a8.157,8.157,0,1,1,8.157,8.157A8.166,8.166,0,0,1,44.784,83.419Zm10.7,11.419-2.54,6.773L50.4,94.839ZM38.258,103a8.166,8.166,0,0,1,8.157-8.157h.5l4.5,11.992a1.632,1.632,0,0,0,3.056,0l4.5-11.992h.5A8.166,8.166,0,0,1,67.623,103v8.157H61.1a1.632,1.632,0,0,0-1.631,1.631v6.525H46.415v-6.525a1.632,1.632,0,0,0-1.631-1.631H38.258ZM10.525,83.419a8.157,8.157,0,1,1,8.157,8.157A8.166,8.166,0,0,1,10.525,83.419Zm27.733,70.148H31.733V130.729A1.632,1.632,0,0,0,30.1,129.1H12.157A4.9,4.9,0,0,1,7.263,124.2V99.733a4.9,4.9,0,0,1,4.894-4.894h8.157a4.9,4.9,0,0,1,4.894,4.894v13.051a1.632,1.632,0,0,0,1.631,1.631H43.152v4.894H20.313V104.627H17.051V120.94a1.632,1.632,0,0,0,1.631,1.631H33.364a4.9,4.9,0,0,1,4.894,4.894Zm26.284-27.733h-23.2a8.146,8.146,0,0,0-1.452-3.263H65.994A8.146,8.146,0,0,0,64.543,125.834ZM98.618,124.2a4.9,4.9,0,0,1-4.894,4.894H75.779a1.632,1.632,0,0,0-1.631,1.631v22.839H67.623v-26.1a4.9,4.9,0,0,1,4.894-4.894H87.2a1.632,1.632,0,0,0,1.631-1.631V104.627H85.567v14.682H62.729v-4.894H79.042a1.632,1.632,0,0,0,1.631-1.631V99.733a4.9,4.9,0,0,1,4.894-4.894h8.157a4.9,4.9,0,0,1,4.894,4.894Z" transform="translate(-4 -72)"/>
              </g>
            </g>
            <g id="Grupo_1190488" data-name="Grupo 1190488" transform="translate(51.846 54.135)">
              <g id="Grupo_1190487" data-name="Grupo 1190487" transform="translate(0 0)">
                <rect id="Rectángulo_461197" data-name="Rectángulo 461197" width="2" height="3" transform="translate(-0.135 0.321)"/>
              </g>
            </g>
            <g id="Grupo_1190490" data-name="Grupo 1190490" transform="translate(20.313)">
              <g id="Grupo_1190489" data-name="Grupo 1190489">
                <path id="Trazado_1038598" data-name="Trazado 1038598" d="M108.47,0H85.631A1.632,1.632,0,0,0,84,1.631V9.788a1.632,1.632,0,0,0,1.631,1.631h6.525v3.263a1.631,1.631,0,0,0,2.61,1.305l6.09-4.568h7.613A1.632,1.632,0,0,0,110.1,9.788V1.631A1.632,1.632,0,0,0,108.47,0Zm-1.631,8.157h-6.525a1.63,1.63,0,0,0-.979.326l-3.915,2.936V9.788a1.632,1.632,0,0,0-1.631-1.631H87.263V3.263h19.576Z" transform="translate(-84)"/>
              </g>
            </g>
            <g id="Grupo_1190492" data-name="Grupo 1190492" transform="translate(60.602 4.878)">
              <g id="Grupo_1190491" data-name="Grupo 1190491" transform="translate(0 0)">
                <rect id="Rectángulo_461198" data-name="Rectángulo 461198" width="3" height="4" transform="translate(0.108 -0.422)"/>
              </g>
            </g>
            <g id="Grupo_1190494" data-name="Grupo 1190494" transform="translate(67.17 4.878)">
              <g id="Grupo_1190493" data-name="Grupo 1190493" transform="translate(0 0)">
                <rect id="Rectángulo_461199" data-name="Rectángulo 461199" width="4" height="4" transform="translate(-0.46 -0.422)"/>
              </g>
            </g>
            <g id="Grupo_1190496" data-name="Grupo 1190496" transform="translate(73.738 4.878)">
              <g id="Grupo_1190495" data-name="Grupo 1190495" transform="translate(0 0)">
                <rect id="Rectángulo_461200" data-name="Rectángulo 461200" width="3" height="4" transform="translate(-0.026 -0.422)"/>
              </g>
            </g>
          </g>
        </g>
      </g>
    </g>
  </g>
</svg>
